<svg width="45" height="46" viewBox="0 0 45 46" fill="none" xmlns="http://www.w3.org/2000/svg">
<path d="M25.3835 36.2688C23.0217 37.2669 20.5115 37.7759 17.9222 37.7759C15.338 37.7759 12.8179 37.2669 10.456 36.2688C9.40351 35.8241 8.43008 35.2855 7.44183 34.6678V44.4762C7.44183 45.0198 7.90137 45.4546 8.44985 45.4546H27.3996C27.9431 45.4546 28.3927 45.0248 28.3927 44.4762V43.1866C32.9881 42.9543 37.0746 40.1773 38.977 35.9723L39.9751 33.7587C38.7052 33.65 37.5291 33.1163 36.6001 32.2318L35.6021 34.4455C34.2976 37.3213 31.5058 39.2435 28.3928 39.4707V34.6678C27.454 35.2855 26.441 35.8241 25.3835 36.2688Z" fill="white"/>
<path d="M9.87757 33.9365C12.2988 35.1718 15.0313 35.8389 17.9269 35.8389C20.8224 35.8389 23.5549 35.1718 25.9712 33.9365C31.8266 30.9718 35.8487 24.9237 35.8487 17.9219C35.8488 8.0246 27.8242 0 17.9269 0C8.02954 0 0 8.01966 0 17.917C0 24.9236 4.01724 30.9718 9.87757 33.9365ZM17.9269 12.6496C20.8372 12.6496 23.1992 15.0115 23.1992 17.9219C23.1992 20.8323 20.8373 23.1942 17.9269 23.1942C15.0165 23.1942 12.6546 20.8323 12.6546 17.9219C12.6497 15.0115 15.0115 12.6496 17.9269 12.6496Z" fill="white"/>
<path d="M37.2972 30.6209C38.1026 31.5548 39.2934 32.1478 40.6227 32.1478C40.6424 32.1478 40.6573 32.1478 40.6721 32.1478C43.0686 32.1181 45.0006 30.1713 45.0006 27.7649C45.0006 25.3436 43.039 23.382 40.6178 23.382C38.1966 23.382 36.2349 25.3436 36.2349 27.7649C36.2398 28.8569 36.64 29.855 37.2972 30.6209Z" fill="white"/>
</svg>
