<svg width="40" height="40" viewBox="0 0 40 40" fill="none" xmlns="http://www.w3.org/2000/svg">
<path d="M8.125 1.25C7.80156 1.25 8.125 0.961136 8.125 0.619747C8.125 0.278276 7.80156 0 8.125 0H37.2916C38.0379 0 38.7155 0.322744 39.2049 0.839612C39.6966 1.35879 40 2.0744 40 2.86245C40 3.64819 39.6966 4.36389 39.2049 4.88307C38.7155 5.39993 38.0379 5.72268 37.2916 5.72268H33.125C32.8016 5.72268 32.5 5.34147 32.5 5C32.5 4.65853 32.8016 4.48549 33.125 4.48549H37.2916C37.7145 4.48549 38.0977 4.30308 38.3767 4.00847C38.6558 3.71378 38.8285 3.3068 38.8285 2.86245C38.8285 2.41579 38.6558 2.00882 38.3767 1.7142C38.0977 1.41951 37.7145 1.2371 37.2916 1.2371L8.125 1.25ZM19.4154 22.914C19.4154 22.5725 19.6767 22.2965 20 22.2965C20.3233 22.2965 20.5869 22.5726 20.5869 22.914V31.7377C20.5869 32.0791 20.3234 32.355 20 32.355C19.6766 32.355 19.4154 32.079 19.4154 31.7377V22.914ZM24.1723 23.204C24.0216 22.9046 24.128 22.5304 24.4137 22.3714C24.6972 22.21 25.0515 22.3247 25.2021 22.6239L29.6402 31.3658C29.793 31.6674 29.6845 32.0393 29.4009 32.2007C29.1153 32.3597 28.761 32.2474 28.6104 31.9458L24.1723 23.204ZM31.8636 38.356C31.7108 38.0544 31.8193 37.6826 32.1027 37.5211C32.3884 37.3621 32.7405 37.4744 32.8933 37.776L33.4845 38.9431C33.6373 39.2424 33.5288 39.6165 33.2454 39.7756C32.9598 39.937 32.6077 39.8224 32.4548 39.5231L31.8636 38.356ZM29.9413 34.5674C29.7885 34.268 29.897 33.8939 30.1805 33.7348C30.4661 33.5735 30.8183 33.6881 30.971 33.9873L31.5623 35.1544C31.7152 35.4537 31.6066 35.8278 31.3232 35.9892C31.0376 36.1483 30.6854 36.0359 30.5326 35.7343L29.9413 34.5674ZM14.7979 22.624C14.9485 22.3247 15.3028 22.21 15.5885 22.3714C15.872 22.5305 15.9805 22.9047 15.8277 23.2041L11.3897 31.9459C11.2391 32.2476 10.8848 32.3598 10.6013 32.2009C10.3156 32.0395 10.2092 31.6676 10.3598 31.3659L14.7979 22.624ZM7.10883 37.776C7.25945 37.4744 7.61383 37.3621 7.89727 37.5211C8.18289 37.6826 8.2893 38.0544 8.13867 38.356L7.54516 39.523C7.39453 39.8223 7.04024 39.9369 6.75672 39.7755C6.47109 39.6165 6.36477 39.2423 6.51531 38.943L7.10883 37.776ZM9.03117 33.9874C9.18172 33.6881 9.53609 33.5735 9.81961 33.7349C10.1052 33.8939 10.2116 34.2681 10.061 34.5675L9.46742 35.7345C9.31688 36.0361 8.9625 36.1484 8.67899 35.9894C8.39336 35.828 8.28703 35.4539 8.43758 35.1546L9.03117 33.9874ZM22.8148 26.7517C22.724 26.4242 22.9011 26.0829 23.2112 25.9869C23.5212 25.891 23.8467 26.0781 23.9375 26.4032L24.2542 27.5327C24.345 27.8602 24.1679 28.2039 23.8578 28.2998C23.5501 28.3957 23.2245 28.2086 23.1337 27.8812L22.8148 26.7517ZM21.7827 23.0893C21.692 22.7619 21.8691 22.4181 22.1791 22.3223C22.4892 22.2264 22.8148 22.4134 22.9056 22.7409L23.2223 23.8681C23.313 24.1955 23.1359 24.5393 22.8259 24.6352C22.518 24.7311 22.1925 24.544 22.1016 24.2166L21.7827 23.0893ZM16.0647 26.4032C16.1555 26.0781 16.481 25.891 16.7889 25.9869C17.099 26.0828 17.2761 26.4242 17.1853 26.7517L16.8686 27.8812C16.7778 28.2086 16.4523 28.3957 16.1422 28.2998C15.8321 28.2039 15.655 27.8602 15.7458 27.5327L16.0647 26.4032ZM17.0967 22.741C17.1875 22.4135 17.5109 22.2265 17.8209 22.3224C18.1309 22.4182 18.308 22.762 18.2173 23.0894L17.9005 24.2167C17.8075 24.5441 17.4842 24.7311 17.1742 24.6353C16.8641 24.5394 16.687 24.1956 16.7778 23.8682L17.0967 22.741ZM29.7154 25.9355C29.4763 25.7063 29.4585 25.3181 29.6734 25.0655C29.8903 24.8129 30.2602 24.7943 30.4972 25.021L31.3255 25.8116C31.5646 26.0407 31.5823 26.4288 31.3676 26.6815C31.1506 26.9341 30.7806 26.9527 30.5415 26.7259L29.7154 25.9355ZM27.0313 23.3701C26.7921 23.1432 26.7745 22.7526 26.9893 22.5001C27.2063 22.2498 27.5739 22.2287 27.8131 22.4579L28.6414 23.2484C28.8805 23.4753 28.8983 23.8658 28.6813 24.1184C28.4665 24.371 28.0967 24.3897 27.8574 24.1606L27.0313 23.3701ZM9.50289 25.021C9.74211 24.7943 10.1097 24.8129 10.3267 25.0655C10.5437 25.3181 10.5238 25.7063 10.2846 25.9355L9.45859 26.7259C9.21938 26.9527 8.85172 26.9341 8.63477 26.6815C8.41774 26.4289 8.43766 26.0407 8.6768 25.8116L9.50289 25.021ZM12.1869 22.4579C12.4261 22.2287 12.7959 22.2498 13.0108 22.5001C13.2277 22.7526 13.2078 23.1432 12.9709 23.3701L12.1426 24.1606C11.9034 24.3897 11.5357 24.371 11.3188 24.1184C11.1017 23.8658 11.1216 23.4753 11.3608 23.2484L12.1869 22.4579ZM19.4154 38.204C19.4154 37.8625 19.6767 37.5866 20 37.5866C20.3233 37.5866 20.5869 37.8626 20.5869 38.204V39.3826C20.5869 39.7241 20.3234 40 20 40C19.6766 40 19.4154 39.724 19.4154 39.3826V38.204ZM19.4154 34.3827C19.4154 34.0412 19.6767 33.7628 20 33.7628C20.3233 33.7628 20.5869 34.0412 20.5869 34.3827V35.559C20.5869 35.9004 20.3234 36.1788 20 36.1788C19.6766 36.1788 19.4154 35.9004 19.4154 35.559V34.3827ZM17.1388 16.6371C17.1388 16.2932 17.4023 16.0173 17.7256 16.0173C18.049 16.0173 18.3102 16.2932 18.3102 16.6371V18.2367C18.3102 18.5805 18.0489 18.8565 17.7256 18.8565C17.4023 18.8565 17.1388 18.5805 17.1388 18.2367V16.6371ZM21.6898 16.6371C21.6898 16.2932 21.9511 16.0173 22.2766 16.0173C22.6 16.0173 22.8613 16.2932 22.8613 16.6371V18.2367C22.8613 18.5805 22.5999 18.8565 22.2766 18.8565C21.9511 18.8565 21.6898 18.5805 21.6898 18.2367V16.6371ZM19.4154 16.6371C19.4154 16.2932 19.6767 16.0173 20 16.0173C20.3233 16.0173 20.5869 16.2932 20.5869 16.6371V18.2367C20.5869 18.5805 20.3234 18.8565 20 18.8565C19.6766 18.8565 19.4154 18.5805 19.4154 18.2367V16.6371ZM22.5579 9.99532L26.9648 7.67069V5.72268H22.5579V9.99532ZM28.1364 5.72268V8.04953C28.1364 8.2741 28.0169 8.49149 27.8109 8.59907L22.5579 11.3751V13.8541H26.4844C26.6726 13.8541 26.8387 13.9476 26.9472 14.0926C27.0779 14.2703 27.1066 14.5112 27.0225 14.7194L25.1423 20.5964C25.0626 20.8466 24.839 21.0197 24.5887 21.0197H20C19.6766 21.0197 19.6875 20.7414 19.6875 20.3999C19.6875 20.0585 19.7268 19.7802 20.0501 19.7802H24.1702L25.6695 15.0935C21.8914 15.0935 18.111 15.0935 14.3307 15.0935L15.8299 19.7802H20.0501C20.3734 19.7802 20.2259 20.0585 20.2259 20.3999C20.2259 20.7414 20.3234 21.0197 20 21.0197H15.4113C15.1366 21.0197 14.9064 20.8185 14.8444 20.5496L12.962 14.6702C12.8955 14.4574 12.9442 14.2329 13.0705 14.0738C13.1791 13.9381 13.3473 13.8541 13.5156 13.8541H17.4421V11.3751L12.1891 8.59907C11.992 8.49619 11.8635 8.28342 11.8635 8.04953V5.72268H2.71063C1.9643 5.72268 1.28664 5.39993 0.795 4.88307C0.305625 4.36397 0 3.64827 0 2.86245C0 2.07432 0.305625 1.35879 0.795078 0.839612C1.28672 0.322744 1.96438 0 2.7107 0H8.125C8.44836 0 8.125 0.283529 8.125 0.625C8.125 0.966471 8.44836 1.25 8.125 1.25L2.71063 1.2371C2.28766 1.2371 1.90227 1.41951 1.62328 1.7142C1.3443 2.00882 1.17156 2.41579 1.17156 2.86245C1.17156 3.3068 1.3443 3.7137 1.62328 4.00847C1.90227 4.30308 2.28766 4.48549 2.71063 4.48549H33.125C33.4484 4.48549 33.125 4.97111 33.125 5.3125C33.125 5.65397 33.4484 5.72268 33.125 5.72268H28.1364ZM13.0373 5.72268V7.67069L17.4422 9.99532V5.72268H13.0373ZM18.6137 5.72268V13.8541H21.3863V5.72268H18.6137Z" fill="white"/>
</svg>
