<svg width="30" height="40" viewBox="0 0 30 40" fill="none" xmlns="http://www.w3.org/2000/svg">
<path d="M28.9607 11.1345C28.257 10.9403 27.4601 10.8433 26.6068 10.8433C25.6118 10.8433 24.54 10.9808 23.4885 11.2598C22.6796 11.4742 21.8666 11.7735 21.0941 12.1618C18.178 13.6178 14.7968 13.7189 14.7968 13.7189C14.7968 13.7189 11.4076 13.6178 8.49153 12.1618C7.71899 11.7775 6.91013 11.4782 6.10123 11.2639C5.04967 10.9808 3.96574 10.8433 2.96271 10.8433C2.10932 10.8433 1.30851 10.9444 0.600729 11.1385C0.228636 11.2396 -0.0261669 11.5955 0.00214455 11.9798C0.107301 13.3023 0.354015 16.4813 4.56028 19.6562V15.2315C4.56028 15.2315 5.49052 15.5591 6.17808 16.0283V19.0819C6.17808 23.8342 10.0365 27.7047 14.7888 27.7047H14.7928C19.5451 27.7047 23.4076 23.8342 23.4076 19.0819V16C24.0952 15.547 24.9445 15.2315 24.9445 15.2315V19.6562C29.1912 16.4813 29.4299 13.3064 29.5391 11.9757C29.5714 11.5915 29.3328 11.2356 28.9607 11.1345Z" fill="white"/>
<path d="M16.7423 0H12.8474C12.4025 0 12.0466 0.364004 12.0466 0.808898V1.5814C8.64921 2.43883 6.10118 5.52073 6.10118 9.19717V9.53286C7.07186 9.77553 8.05062 10.1234 8.94446 10.5682C11.4763 11.8342 14.4652 12.004 14.7968 12.0162C15.1325 12 18.1133 11.8301 20.6452 10.5682C21.543 10.1193 22.5218 9.77149 23.4924 9.52882V9.19312C23.4924 5.51668 20.9444 2.43478 17.547 1.57735V0.808898C17.5431 0.364004 17.1872 0 16.7423 0ZM14.7726 8.48534C13.7129 8.48534 12.8515 7.62386 12.8515 6.56421C12.8515 6.30131 12.9041 6.06673 13.0011 5.82406C13.2923 5.1365 13.9758 4.64307 14.7726 4.64307C15.5694 4.64307 16.2569 5.1365 16.5441 5.82406C16.6412 6.06673 16.6937 6.30131 16.6937 6.56421C16.6937 7.62791 15.8323 8.48534 14.7726 8.48534Z" fill="white"/>
<path d="M17.0578 29.3226H12.5279C6.63107 29.3226 1.85048 34.1032 1.85048 40H27.7352C27.7352 34.1032 22.9546 29.3226 17.0578 29.3226Z" fill="white"/>
</svg>
