<svg width="40" height="40" viewBox="0 0 40 40" fill="none" xmlns="http://www.w3.org/2000/svg">
<g clip-path="url(#clip0)">
<path d="M38.0606 16.2822C37.8489 15.9711 37.4998 15.78 37.1233 15.7695L36.2241 15.7451C35.5359 17.2784 34.2407 18.43 32.6278 18.9266L30.5817 24.5488C30.5745 24.5684 30.5624 24.5846 30.5549 24.604L33.158 26.6688C33.4462 26.8987 33.8348 26.9833 34.2051 26.8782C34.5668 26.7766 34.8586 26.5052 34.9868 26.1516L38.1922 17.3421C38.3215 16.9885 38.2723 16.5936 38.0606 16.2822Z" fill="white"/>
<path d="M23.4338 19.8563C22.4961 20.0534 21.4086 19.9631 20.4105 19.5999L3.45142 13.4284L3.45025 13.4281C3.07376 13.2906 2.72025 13.1177 2.39095 12.9156L1.94978 14.1278C1.28572 15.9522 2.2265 17.9697 4.05095 18.6338L23.8726 25.8483C25.6971 26.5125 27.7146 25.5716 28.3786 23.7471L30.0047 19.2792L23.4338 19.8563Z" fill="white"/>
<path d="M32.4883 9.03124L8.26227 0.213443C6.42821 -0.453274 4.41892 0.494849 3.75572 2.31461L2.15298 6.71882C1.48478 8.55218 2.43509 10.5626 4.25415 11.2256L21.2062 17.395C21.7777 17.6038 22.4941 17.6911 23.0635 17.5358L31.745 16.7737C32.8905 16.4945 33.8152 15.6671 34.2169 14.5604L34.5896 13.5368C35.2564 11.7072 34.3117 9.69569 32.4883 9.03124ZM13.9662 8.5246C13.7449 9.13272 13.0725 9.44624 12.4642 9.22499L8.05954 7.62179C7.45126 7.4003 7.13774 6.72788 7.35899 6.11976C7.5804 5.51148 8.25289 5.19812 8.86102 5.41937L13.2659 7.02257C13.874 7.2439 14.1876 7.91632 13.9662 8.5246Z" fill="white"/>
<path d="M14.6274 24.9777V28.1251C14.6274 29.4172 13.5757 30.4689 12.2837 30.4689H6.42431V29.297C6.42431 27.3554 4.85033 25.7814 2.90869 25.7814C2.2615 25.7814 1.73682 26.3059 1.73682 26.9533V38.8282C1.73682 39.4754 2.2615 40.0001 2.90869 40.0001C4.85033 40.0001 6.42431 38.4261 6.42431 36.4845V35.1564H12.2837C16.1609 35.1564 19.3149 32.0024 19.3149 28.1251V26.6842L14.6274 24.9777Z" fill="white"/>
</g>
<defs>
<clipPath id="clip0">
<rect width="40" height="40" fill="white"/>
</clipPath>
</defs>
</svg>
