<svg width="40" height="40" viewBox="0 0 40 40" fill="none" xmlns="http://www.w3.org/2000/svg">
<g clip-path="url(#clip0)">
<path d="M22.5102 7.0853C22.6305 7.0853 22.7279 6.98757 22.7279 6.86727C22.7279 6.74696 22.6305 6.64923 22.5102 6.64923C22.3899 6.64923 22.2922 6.74696 22.2922 6.86727C22.2922 6.98757 22.3899 7.0853 22.5102 7.0853Z" fill="white"/>
<path d="M8.18152 8.51376H24.2036V5.22101H8.18152V8.51376ZM22.5101 5.94804C23.018 5.94804 23.4296 6.35931 23.4296 6.8672C23.4296 7.37472 23.018 7.78636 22.5101 7.78636C22.0026 7.78636 21.5909 7.37472 21.5909 6.8672C21.5917 6.35968 22.0029 5.94878 22.5104 5.94804H22.5101ZM19.3513 5.94804C19.8592 5.94804 20.2705 6.35931 20.2705 6.8672C20.2705 7.37472 19.8592 7.78636 19.3513 7.78636C18.8438 7.78636 18.4322 7.37472 18.4322 6.8672C18.4329 6.35968 18.8442 5.94878 19.3513 5.94804ZM16.1926 5.94804C16.7001 5.94804 17.1117 6.35931 17.1117 6.8672C17.1117 7.37472 16.7001 7.78636 16.1926 7.78636C15.6851 7.78636 15.2734 7.37472 15.2734 6.8672C15.2742 6.35968 15.6854 5.94878 16.1926 5.94804ZM13.0335 5.94804C13.5414 5.94804 13.953 6.35931 13.953 6.8672C13.953 7.37472 13.5414 7.78636 13.0335 7.78636C12.526 7.78636 12.1143 7.37472 12.1143 6.8672C12.1151 6.35968 12.5263 5.94878 13.0338 5.94804H13.0335ZM9.87472 5.94804C10.3826 5.94804 10.7939 6.35931 10.7939 6.8672C10.7939 7.37472 10.3826 7.78636 9.87472 7.78636C9.3672 7.78636 8.95556 7.37472 8.95556 6.8672C8.95631 6.35968 9.36758 5.94878 9.87472 5.94804Z" fill="white"/>
<path d="M16.1929 15.8889C16.7119 15.8889 17.1324 15.4683 17.1324 14.9493C17.1324 14.4304 16.7119 14.0098 16.1929 14.0098C15.6739 14.0098 15.2534 14.4304 15.2534 14.9493C15.2541 15.468 15.6743 15.8885 16.1929 15.8889Z" fill="white"/>
<path d="M22.7277 20.0423C22.209 20.0423 21.7881 20.4628 21.7881 20.9818C21.7881 21.5008 22.209 21.9213 22.7277 21.9213C23.2467 21.9213 23.6672 21.5008 23.6672 20.9818C23.6668 20.4632 23.2467 20.043 22.7277 20.0423Z" fill="white"/>
<path d="M16.1929 28.1553C16.7119 28.1553 17.1328 27.7348 17.1328 27.2158C17.1328 26.6968 16.7119 26.2759 16.1929 26.2762C15.6739 26.2762 15.2534 26.6971 15.2534 27.2161C15.2541 27.7348 15.6746 28.1546 16.1929 28.1553Z" fill="white"/>
<path d="M13.0339 7.0853C13.1542 7.0853 13.2516 6.98757 13.2516 6.86727C13.2516 6.74696 13.1542 6.64923 13.0339 6.64923C12.9136 6.64923 12.8159 6.74696 12.8159 6.86727C12.8159 6.98757 12.9136 7.0853 13.0339 7.0853Z" fill="white"/>
<path d="M19.3515 7.0853C19.4722 7.0853 19.5696 6.98757 19.5696 6.86727C19.5696 6.74696 19.4722 6.64923 19.3515 6.64923C19.2312 6.64923 19.1339 6.74696 19.1339 6.86727C19.1339 6.98757 19.2312 7.0853 19.3515 7.0853Z" fill="white"/>
<path d="M16.1931 7.0853C16.3134 7.0853 16.4112 6.98757 16.4112 6.86727C16.4112 6.74696 16.3134 6.64923 16.1931 6.64923C16.0728 6.64923 15.9751 6.74696 15.9751 6.86727C15.9751 6.98757 16.0728 7.0853 16.1931 7.0853Z" fill="white"/>
<path d="M22.7277 14.0098C22.209 14.0098 21.7881 14.4304 21.7881 14.9493C21.7881 15.4683 22.2087 15.8889 22.7277 15.8889C23.2467 15.8892 23.6672 15.4683 23.6672 14.9493C23.6668 14.4307 23.2467 14.0106 22.7277 14.0098Z" fill="white"/>
<path d="M9.87514 7.0853C9.99582 7.0853 10.0932 6.98757 10.0932 6.86727C10.0932 6.74696 9.99582 6.64923 9.87514 6.64923C9.75483 6.64923 9.65747 6.74696 9.65747 6.86727C9.65747 6.98757 9.75483 7.0853 9.87514 7.0853Z" fill="white"/>
<path d="M9.65717 26.2762C9.13818 26.2762 8.71766 26.6968 8.71729 27.2158C8.71729 27.7344 9.13781 28.1553 9.6568 28.1553C10.1758 28.1557 10.5963 27.7351 10.5967 27.2161C10.5963 26.6975 10.1758 26.2766 9.65717 26.2762Z" fill="white"/>
<path d="M33.3194 22.7214V3.95289C33.3231 2.74869 32.5894 1.66517 31.4703 1.2217L31.2375 1.12878C31.2382 1.14766 31.239 1.16691 31.239 1.18653V21.3621C31.9131 21.8341 32.6064 22.2868 33.3194 22.7214Z" fill="white"/>
<path d="M22.172 26.2571C22.0799 26.2986 22.021 26.3904 22.0217 26.4915V30.874C22.0217 33.0296 22.7854 34.9349 24.2946 36.5611V36.5304C24.2946 36.2161 24.5493 35.9618 24.8632 35.9618C25.1775 35.9618 25.4318 36.2161 25.4318 36.5304V37.0468C25.4318 37.2067 25.3645 37.3592 25.2456 37.4665C25.2693 37.4865 25.2938 37.5061 25.3174 37.5261C25.4 37.5654 25.4718 37.6239 25.527 37.6968C25.6521 37.7964 25.7798 37.8952 25.9119 37.9922C27.0876 38.8466 28.3825 39.5229 29.7555 40C31.1755 39.5247 32.5196 38.8469 33.7464 37.9881C34.01 37.8008 34.2606 37.6083 34.4983 37.4114C34.4124 37.3092 34.3654 37.18 34.3657 37.0468V36.5304C34.3661 36.2275 34.6041 35.978 34.9066 35.9636C35.2094 35.9488 35.4703 36.1742 35.5 36.4756C37.0118 34.8679 37.7758 32.9914 37.7758 30.8744V26.4915C37.7766 26.3904 37.7177 26.2986 37.6255 26.2568C34.8984 25.0511 32.3083 23.5574 29.8988 21.8005C27.4893 23.5574 24.8991 25.0515 22.172 26.2571ZM27.1106 37.0468C27.1106 37.361 26.8559 37.6154 26.542 37.6154C26.2277 37.6154 25.9734 37.361 25.9734 37.0468V36.5304C25.9734 36.2164 26.2277 35.9618 26.542 35.9618C26.8559 35.9618 27.1106 36.2164 27.1106 36.5304V37.0468ZM28.789 37.0468C28.789 37.361 28.5343 37.6154 28.2204 37.6154C27.9065 37.6154 27.6518 37.361 27.6518 37.0468V36.5304C27.6518 36.2164 27.9065 35.9618 28.2204 35.9618C28.5343 35.9618 28.789 36.2164 28.789 36.5304V37.0468ZM30.4674 37.0468C30.4674 37.361 30.2131 37.6154 29.8988 37.6154C29.5849 37.6154 29.3302 37.361 29.3302 37.0468V36.5304C29.3302 36.2164 29.5849 35.9618 29.8988 35.9618C30.2131 35.9618 30.4674 36.2164 30.4674 36.5304V37.0468ZM32.1458 37.0468C32.1458 37.361 31.8915 37.6154 31.5772 37.6154C31.2633 37.6154 31.0086 37.361 31.0086 37.0468V36.5304C31.0086 36.2164 31.2633 35.9618 31.5772 35.9618C31.8915 35.9618 32.1458 36.2164 32.1458 36.5304V37.0468ZM33.8245 36.5304V37.0468C33.8245 37.361 33.5698 37.6154 33.2559 37.6154C32.9417 37.6154 32.6873 37.361 32.6873 37.0468V36.5304C32.6873 36.2164 32.9417 35.9618 33.2559 35.9618C33.5698 35.9618 33.8245 36.2164 33.8245 36.5304ZM32.938 28.7618C33.1597 28.9835 33.1597 29.3437 32.938 29.5658L29.576 32.9274C29.3539 33.1495 28.9941 33.1495 28.772 32.9274L26.8596 31.015C26.6375 30.7929 26.6375 30.4331 26.8596 30.211C27.0817 29.9889 27.4419 29.9889 27.664 30.211L29.1747 31.7214L32.1343 28.7618C32.3564 28.54 32.7158 28.54 32.938 28.7618Z" fill="white"/>
<path d="M9.65717 20.0423C9.13818 20.0423 8.71765 20.4628 8.71765 20.9818C8.71765 21.5008 9.13818 21.9213 9.65717 21.9213C10.1762 21.9213 10.5967 21.5008 10.5967 20.9818C10.5959 20.4632 10.1758 20.0427 9.65717 20.0423Z" fill="white"/>
<path d="M9.65717 14.0098C9.13818 14.0098 8.71729 14.4304 8.71729 14.9493C8.71729 15.4683 9.13818 15.8889 9.65717 15.8889C10.1762 15.8889 10.5967 15.4683 10.5967 14.9493C10.5959 14.4307 10.1758 14.0106 9.65717 14.0098Z" fill="white"/>
<path d="M3.41193 35.3895L3.50484 35.6223C3.94832 36.7414 5.03183 37.4751 6.23566 37.471H23.5949C22.9937 36.8461 22.4743 36.1469 22.0494 35.3909H3.46967C3.45005 35.3909 3.43118 35.3898 3.41193 35.3895Z" fill="white"/>
<path d="M16.1929 21.9213C16.7119 21.9213 17.1324 21.5008 17.1324 20.9818C17.1324 20.4632 16.7119 20.0423 16.1929 20.0423C15.6739 20.0427 15.2534 20.4632 15.2534 20.9818C15.2541 21.5008 15.6743 21.921 16.1929 21.9213Z" fill="white"/>
<path d="M28.9156 0H3.46939C2.81454 0.00074036 2.2837 0.531578 2.28296 1.18643V33.0674C2.2837 33.7223 2.81454 34.2531 3.46939 34.2539H21.5112C21.0922 33.1766 20.8797 32.0302 20.8841 30.8745V26.4916C20.8838 25.9415 21.2069 25.4425 21.7093 25.2181C24.4886 23.9903 27.1213 22.454 29.5574 20.6379C29.714 20.5209 29.9199 20.4928 30.102 20.5635V1.18643C30.1012 0.531208 29.5704 0.00074036 28.9156 0ZM9.65731 29.2923C8.51013 29.2923 7.58023 28.3624 7.58023 27.2153C7.5806 26.0684 8.5105 25.1385 9.65768 25.1389C10.8045 25.1389 11.7344 26.0692 11.734 27.216C11.7325 28.3624 10.8034 29.2912 9.65731 29.2923ZM9.65731 23.0585C8.51013 23.0585 7.5806 22.129 7.5806 20.9818C7.5806 19.835 8.5105 18.9051 9.65731 18.9051C10.8041 18.9055 11.734 19.835 11.734 20.9818C11.7325 22.1282 10.8038 23.0574 9.65731 23.0585ZM9.65731 17.0261C8.51013 17.0261 7.58023 16.0962 7.58023 14.9493C7.58023 13.8022 8.51013 12.8726 9.65731 12.8726C10.8041 12.8726 11.734 13.8025 11.734 14.9493C11.7325 16.0958 10.8038 17.0249 9.65731 17.0261ZM17.8031 33.0782H14.5818C14.2679 33.0782 14.0132 32.8239 14.0132 32.5096C14.0132 32.1957 14.2679 31.941 14.5818 31.941H17.8031C18.117 31.941 18.3717 32.1957 18.3717 32.5096C18.3717 32.8239 18.117 33.0782 17.8031 33.0782ZM16.1925 18.9051C17.3393 18.9051 18.2692 19.835 18.2692 20.9818C18.2692 22.1286 17.3397 23.0585 16.1928 23.0585C15.0457 23.0585 14.1158 22.129 14.1158 20.9818C14.1169 19.8354 15.046 18.9062 16.1925 18.9051ZM14.1158 14.9493C14.1158 13.8025 15.0457 12.8726 16.1925 12.8726C17.3397 12.8726 18.2696 13.8022 18.2696 14.9493C18.2696 16.0962 17.3397 17.0261 16.1925 17.0261C15.0464 17.0249 14.1172 16.0958 14.1158 14.9493ZM16.1925 25.1389C17.3397 25.1389 18.2696 26.0684 18.2696 27.2156C18.2696 28.3624 17.3397 29.2923 16.1928 29.2923C15.046 29.2927 14.1161 28.3628 14.1158 27.216C14.1169 26.0696 15.046 25.14 16.1925 25.1389ZM22.728 23.0585C21.5808 23.0585 20.6513 22.129 20.6513 20.9818C20.6513 19.835 21.5808 18.9051 22.728 18.9051C23.8748 18.9051 24.8047 19.835 24.8047 20.9818C24.8032 22.1282 23.8741 23.0574 22.7276 23.0585H22.728ZM22.728 17.0261C21.5808 17.0261 20.6509 16.0965 20.6509 14.9493C20.6509 13.8025 21.5808 12.8726 22.728 12.8726C23.8748 12.8726 24.8047 13.8025 24.8047 14.9493C24.8032 16.0958 23.8741 17.0249 22.7276 17.0261H22.728ZM25.3407 9.08237C25.3407 9.39628 25.0864 9.65096 24.7721 9.65096H7.61281C7.2989 9.65096 7.04421 9.39628 7.04421 9.08237V4.65242C7.04421 4.33814 7.2989 4.08383 7.61281 4.08383H24.7721C25.086 4.08383 25.3407 4.33814 25.3407 4.65242V9.08237Z" fill="white"/>
</g>
<defs>
<clipPath id="clip0">
<rect width="40" height="40" fill="white"/>
</clipPath>
</defs>
</svg>
