<svg width="40" height="40" viewBox="0 0 40 40" fill="none" xmlns="http://www.w3.org/2000/svg">
<path d="M31.4715 3.50442C29.408 3.23119 25.6685 2.59095 23.5805 1.37977C22.2797 0.625341 20.7137 -0.341149 19.1518 0.119667C18.2098 0.396972 17.3248 0.890412 16.4807 1.37977C14.3927 2.59095 10.6491 3.23119 8.58973 3.50442C7.94948 3.59006 7.64363 4.33634 8.03919 4.84609L12.3782 10.4574C13.255 9.75602 14.2174 9.18102 15.2573 8.7406C16.7702 8.10035 18.377 7.77818 20.0326 7.77818C21.6884 7.77818 23.2951 8.10443 24.808 8.7406C25.8479 9.18102 26.8103 9.75602 27.6871 10.4574L32.0302 4.85017C32.4176 4.3363 32.1117 3.59006 31.4715 3.50442Z" fill="white"/>
<path d="M36.4956 8.53259C36.7688 10.592 37.4091 14.3356 38.6203 16.4236C39.3747 17.7244 40.3412 19.2904 39.8803 20.8523C39.603 21.7943 39.1096 22.6793 38.6203 23.5234C37.4091 25.6113 36.7689 29.355 36.4956 31.4144C36.41 32.0546 35.6637 32.3604 35.154 31.9649L29.5426 27.6218C30.244 26.7451 30.819 25.7826 31.2595 24.7427C31.8997 23.2298 32.2219 21.623 32.2219 19.9674C32.2219 18.3116 31.8956 16.7049 31.2595 15.192C30.819 14.1521 30.244 13.1897 29.5426 12.3129L35.1498 7.96982C35.6637 7.58245 36.41 7.8883 36.4956 8.53259Z" fill="white"/>
<path d="M8.53262 36.4956C10.592 36.7688 14.3356 37.409 16.4236 38.6202C17.7245 39.3746 19.2905 40.3411 20.8523 39.8803C21.7944 39.603 22.6793 39.1096 23.5234 38.6202C25.6114 37.4091 29.355 36.7688 31.4144 36.4956C32.0547 36.4099 32.3605 35.6636 31.9649 35.1539L27.6259 29.5425C26.7492 30.244 25.7867 30.819 24.7469 31.2594C23.2339 31.8996 21.6272 32.2218 19.9715 32.2218C18.3158 32.2218 16.709 31.8956 15.1961 31.2594C14.1562 30.819 13.1938 30.244 12.317 29.5425L7.97801 35.1498C7.58244 35.6636 7.89237 36.4099 8.53262 36.4956Z" fill="white"/>
<path d="M3.5085 31.4674C3.23119 29.408 2.59095 25.6685 1.37977 23.5764C0.625341 22.2755 -0.341149 20.7096 0.119667 19.1477C0.396972 18.2056 0.890412 17.3207 1.37977 16.4766C2.59095 14.3886 3.23119 10.645 3.50442 8.58561C3.59006 7.94536 4.33634 7.63951 4.84609 8.03507L10.4534 12.3782C9.75194 13.2549 9.17694 14.2173 8.73652 15.2572C8.09627 16.7702 7.77411 18.3769 7.77411 20.0326C7.77411 21.6883 8.10035 23.295 8.73652 24.808C9.17694 25.8479 9.75194 26.8103 10.4534 27.6871L4.85017 32.022C4.34042 32.4176 3.59006 32.1117 3.5085 31.4674Z" fill="white"/>
<path d="M20.0286 9.43793C17.5206 9.43793 15.2165 10.3106 13.4018 11.7624C12.7982 12.2436 12.2518 12.7941 11.7665 13.3936C10.3025 15.2165 9.42572 17.5246 9.42572 20.0408C9.42572 22.5488 10.2943 24.8488 11.7502 26.6635C12.2355 27.267 12.7819 27.8175 13.3855 28.3028C15.2043 29.7668 17.5124 30.6436 20.0286 30.6436C22.5447 30.6436 24.8529 29.7668 26.6717 28.3028C27.2752 27.8175 27.8258 27.267 28.307 26.6635C29.7588 24.8488 30.6314 22.5447 30.6314 20.0408C30.6314 17.5246 29.7547 15.2124 28.2907 13.3977C27.8054 12.7941 27.2589 12.2477 26.6554 11.7665C24.8406 10.3106 22.5365 9.43793 20.0286 9.43793ZM23.2258 27.6667C22.9933 27.8012 22.7283 27.5851 22.8384 27.3404C23.0137 26.9571 23.1075 26.533 23.1075 26.0844C23.1075 26.0803 23.1075 26.0762 23.1075 26.0762C23.1116 25.9988 23.1646 24.9385 22.3572 23.7314C21.6884 22.7323 20.5424 21.2316 20.31 20.2773C20.257 20.0693 19.9838 20.0122 19.8533 20.1795C19.6208 20.473 19.3802 20.8686 19.3068 21.3009C19.1682 22.1369 19.3966 22.8424 18.5646 23.3848C17.6226 24.0006 16.9824 24.9263 16.9824 26.0804C16.9824 26.5331 17.0802 26.9571 17.2556 27.3445C17.3657 27.5892 17.0884 27.8217 16.8682 27.6708C15.4083 26.6636 14.454 24.9752 14.454 23.0667C14.454 21.0155 15.5592 19.2171 17.2108 18.2465C17.325 18.1812 17.4677 18.2465 17.4921 18.3729C17.5859 18.8623 17.9448 19.1273 18.3811 19.1273C18.8664 19.1273 19.311 18.6991 19.2824 18.2057C19.262 17.9406 19.156 17.696 19.054 17.4553C18.948 17.2026 18.8624 16.9456 18.7971 16.6805C18.5932 15.869 18.5606 14.9923 18.74 14.1767C18.8338 13.7403 19.001 13.3244 19.2049 12.9288C19.4414 12.4639 19.8247 12.0439 19.8288 12.0398C20.0368 11.7992 20.4364 11.9093 20.4854 12.2233C20.7546 13.9401 22.9893 16.8682 24.2739 18.7807C26.0436 21.4191 26.374 25.8112 23.2258 27.6667Z" fill="white"/>
</svg>
