<svg width="53" height="40" viewBox="0 0 53 40" fill="none" xmlns="http://www.w3.org/2000/svg">
<path d="M51.7991 0H28.2796C27.665 0 27.1622 0.502794 27.1622 1.11732V38.771C27.1622 39.3855 27.665 39.8883 28.2796 39.8883H51.7991C52.4136 39.8883 52.9164 39.3855 52.9164 38.771V1.11732C52.9164 0.502794 52.4136 0 51.7991 0ZM32.665 22.0615C31.5086 22.0615 30.5701 21.1229 30.5701 19.9665C30.5701 18.8101 31.5086 17.8715 32.665 17.8715C33.8215 17.8715 34.76 18.8101 34.76 19.9665C34.76 21.1229 33.8215 22.0615 32.665 22.0615Z" fill="white"/>
<path d="M0.36337 34.8213C0.469515 35.352 0.938789 35.7151 1.45834 35.7151C1.53097 35.7151 1.60918 35.7095 1.68181 35.6928L8.77119 34.2347C9.26281 34.1341 9.62594 33.7151 9.65946 33.2179L9.99465 28.3911L13.6148 32.4078L12.6595 38.4414C12.5645 39.0503 12.9779 39.6257 13.5868 39.7207L15.2684 39.9889C15.3298 40 15.3857 40 15.4416 40C15.9835 40 16.4583 39.609 16.5421 39.0559L17.7042 31.6928C17.7544 31.3576 17.6539 31.0224 17.4304 30.771L13.1399 25.9944L15.7768 22.2347L15.9555 24.5363C15.9778 24.8436 16.1454 25.1173 16.4025 25.2849L21.1454 28.3519C21.3354 28.4748 21.5421 28.5307 21.7488 28.5307C22.1176 28.5307 22.475 28.3519 22.6874 28.0223L23.6148 26.5921C23.95 26.0725 23.7991 25.3798 23.2852 25.0446L19.7656 22.7709L19.369 17.6759C19.341 17.3519 19.179 17.0502 18.9109 16.8602L14.8215 13.8882C14.665 13.7765 14.4807 13.7038 14.2852 13.6815L6.32985 12.81C6.29074 12.8044 6.24605 12.8044 6.20694 12.8044C5.70974 12.8044 5.2684 13.134 5.13432 13.62L3.58683 19.134C3.41924 19.7262 3.7656 20.3463 4.36337 20.5139L6.00024 20.972C6.1008 20.9999 6.20136 21.011 6.30192 21.011C6.78795 21.011 7.24046 20.687 7.37454 20.1954L8.27398 16.9831L11.8438 17.3742L6.45834 24.5864C6.32985 24.7597 6.25164 24.9664 6.24046 25.1842L5.88292 30.8044L0.894096 31.8323C0.290744 31.9608 -0.100317 32.5473 0.0225876 33.1508L0.36337 34.8213Z" fill="white"/>
<path d="M20.5924 14.6257C23.1039 14.6257 25.1399 12.5897 25.1399 10.0782C25.1399 7.56668 23.1039 5.5307 20.5924 5.5307C18.0809 5.5307 16.0449 7.56668 16.0449 10.0782C16.0449 12.5897 18.0809 14.6257 20.5924 14.6257Z" fill="white"/>
</svg>
